<svg width="22" height="16" viewBox="0 0 22 16" fill="none" xmlns="http://www.w3.org/2000/svg">
<path d="M1.65601 7C1.10372 7 0.656006 7.44772 0.656006 8C0.656006 8.55228 1.10372 9 1.65601 9V7ZM21.6731 8.70711C22.0636 8.31658 22.0636 7.68342 21.6731 7.29289L15.3092 0.928932C14.9186 0.538408 14.2855 0.538408 13.8949 0.928932C13.5044 1.31946 13.5044 1.95262 13.8949 2.34315L19.5518 8L13.8949 13.6569C13.5044 14.0474 13.5044 14.6805 13.8949 15.0711C14.2855 15.4616 14.9186 15.4616 15.3092 15.0711L21.6731 8.70711ZM1.65601 9H20.966V7H1.65601V9Z" fill="white"/>
</svg>
