<svg width="128" height="106" viewBox="0 0 128 106" fill="none" xmlns="http://www.w3.org/2000/svg">
<path fill-rule="evenodd" clip-rule="evenodd" d="M8.76399 45.7169C43.1167 30.805 65.9857 20.8964 77.4693 16.0892C110.153 2.45263 117.024 0.098105 121.441 0C122.422 0 124.582 0.196211 126.054 1.37347C127.232 2.35452 127.526 3.62989 127.722 4.61094C127.919 5.59199 128.115 7.65219 127.919 9.22187C126.152 27.8618 118.496 73.0882 114.57 93.8865C112.902 102.716 109.663 105.659 106.522 105.953C99.6513 106.542 94.4494 101.441 87.8733 97.1239C77.4693 90.3547 71.6785 86.1362 61.569 79.465C49.889 71.8129 57.4466 67.5944 64.1209 60.727C65.8876 58.9611 96.0198 31.4917 96.6087 29.0391C96.7068 28.7448 96.7068 27.5675 96.0198 26.9789C95.3327 26.3902 94.3512 26.5865 93.566 26.7827C92.4864 26.9789 75.9971 37.9666 43.9019 59.6478C39.1906 62.8853 34.9702 64.455 31.1423 64.3569C26.9218 64.2588 18.8735 62.0024 12.7882 60.0403C5.42688 57.6857 -0.462154 56.4104 0.0285982 52.29C0.32305 50.1317 3.26756 47.9733 8.76399 45.7169Z" fill="white"/>
</svg>
